STARTFONT 2.1
FONT screen.b.12
SIZE 12 80 80
FONTBOUNDINGBOX 8 15 0 -4
STARTPROPERTIES 4
FONT_ASCENT 10
FONT_DESCENT 4
DEFAULT_CHAR 32
COPYRIGHT "Derived from a vfont"
ENDPROPERTIES
CHARS 134
STARTCHAR H00
ENCODING 0
SWIDTH 600 0
DWIDTH 8 0
BBX 8 14 0 -4
BITMAP
00
00
00
00
00
00
00
00
00
00
00
00
00
00
ENDCHAR
STARTCHAR H01
ENCODING 1
SWIDTH 600 0
DWIDTH 8 0
BBX 8 14 0 -4
BITMAP
00
38
38
38
38
38
38
38
38
38
38
38
38
38
ENDCHAR
STARTCHAR H02
ENCODING 2
SWIDTH 600 0
DWIDTH 8 0
BBX 8 14 0 -4
BITMAP
00
38
38
38
38
38
38
38
38
38
38
38
38
38
ENDCHAR
STARTCHAR H03
ENCODING 3
SWIDTH 600 0
DWIDTH 8 0
BBX 8 14 0 -4
BITMAP
00
38
38
38
38
38
38
38
38
38
38
38
38
38
ENDCHAR
STARTCHAR H04
ENCODING 4
SWIDTH 600 0
DWIDTH 8 0
BBX 8 14 0 -4
BITMAP
00
38
38
38
38
38
38
38
38
38
38
38
38
38
ENDCHAR
STARTCHAR H05
ENCODING 5
SWIDTH 600 0
DWIDTH 8 0
BBX 8 14 0 -4
BITMAP
00
38
38
38
38
38
38
38
38
38
38
38
38
38
ENDCHAR
STARTCHAR H06
ENCODING 6
SWIDTH 600 0
DWIDTH 8 0
BBX 8 14 0 -4
BITMAP
00
00
00
00
00
00
00
00
00
00
00
00
00
00
ENDCHAR
STARTCHAR H07
ENCODING 7
SWIDTH 600 0
DWIDTH 8 0
BBX 8 14 0 -4
BITMAP
00
00
00
00
00
00
00
00
00
00
00
00
00
00
ENDCHAR
STARTCHAR H08
ENCODING 8
SWIDTH 600 0
DWIDTH 8 0
BBX 8 14 0 -4
BITMAP
00
00
00
00
00
00
00
00
00
00
00
00
00
00
ENDCHAR
STARTCHAR H09
ENCODING 9
SWIDTH 600 0
DWIDTH 8 0
BBX 8 14 0 -4
BITMAP
fc
7e
fc
7e
fc
7e
fc
7e
fc
7e
fc
7e
fc
7e
ENDCHAR
STARTCHAR H0a
ENCODING 10
SWIDTH 600 0
DWIDTH 8 0
BBX 8 14 0 -4
BITMAP
fe
fe
fe
fe
fe
fe
fe
fe
fe
fe
fe
fe
fe
fe
ENDCHAR
STARTCHAR H0b
ENCODING 11
SWIDTH 600 0
DWIDTH 8 0
BBX 8 14 0 -4
BITMAP
38
38
38
38
38
38
38
38
38
38
38
38
38
38
ENDCHAR
STARTCHAR H0c
ENCODING 12
SWIDTH 600 0
DWIDTH 8 0
BBX 8 14 0 -4
BITMAP
38
38
38
38
38
38
38
38
38
38
38
38
38
38
ENDCHAR
STARTCHAR H0d
ENCODING 13
SWIDTH 600 0
DWIDTH 8 0
BBX 8 14 0 -4
BITMAP
00
00
00
00
00
00
00
00
00
00
00
00
00
00
ENDCHAR
STARTCHAR H0e
ENCODING 14
SWIDTH 600 0
DWIDTH 8 0
BBX 8 14 0 -4
BITMAP
00
00
00
00
00
00
00
00
00
00
00
00
00
00
ENDCHAR
STARTCHAR H0f
ENCODING 15
SWIDTH 600 0
DWIDTH 8 0
BBX 8 14 0 -4
BITMAP
00
00
00
00
00
00
00
00
00
00
00
00
00
00
ENDCHAR
STARTCHAR H10
ENCODING 16
SWIDTH 600 0
DWIDTH 8 0
BBX 8 14 0 -4
BITMAP
00
00
00
00
00
00
00
00
00
00
00
00
00
00
ENDCHAR
STARTCHAR H11
ENCODING 17
SWIDTH 600 0
DWIDTH 8 0
BBX 8 14 0 -4
BITMAP
00
00
00
00
00
00
00
00
00
00
00
00
00
00
ENDCHAR
STARTCHAR H12
ENCODING 18
SWIDTH 600 0
DWIDTH 8 0
BBX 8 14 0 -4
BITMAP
00
00
00
00
00
00
00
00
00
00
00
00
00
00
ENDCHAR
STARTCHAR H13
ENCODING 19
SWIDTH 600 0
DWIDTH 8 0
BBX 8 14 0 -4
BITMAP
00
00
00
00
00
00
00
00
00
00
00
00
00
00
ENDCHAR
STARTCHAR H14
ENCODING 20
SWIDTH 600 0
DWIDTH 8 0
BBX 8 14 0 -4
BITMAP
00
00
00
00
00
00
00
00
00
00
00
00
00
00
ENDCHAR
STARTCHAR H15
ENCODING 21
SWIDTH 600 0
DWIDTH 8 0
BBX 8 14 0 -4
BITMAP
00
00
00
00
00
00
00
00
00
00
00
00
00
00
ENDCHAR
STARTCHAR H16
ENCODING 22
SWIDTH 600 0
DWIDTH 8 0
BBX 8 14 0 -4
BITMAP
00
00
00
00
00
00
00
00
00
00
00
00
00
00
ENDCHAR
STARTCHAR H17
ENCODING 23
SWIDTH 600 0
DWIDTH 8 0
BBX 8 14 0 -4
BITMAP
00
00
00
00
00
00
00
00
00
00
00
00
00
00
ENDCHAR
STARTCHAR H18
ENCODING 24
SWIDTH 600 0
DWIDTH 8 0
BBX 8 14 0 -4
BITMAP
00
38
38
38
38
38
38
38
38
38
38
38
38
38
ENDCHAR
STARTCHAR H19
ENCODING 25
SWIDTH 600 0
DWIDTH 8 0
BBX 8 14 0 -4
BITMAP
00
38
38
38
38
38
38
38
38
38
38
38
38
38
ENDCHAR
STARTCHAR H1a
ENCODING 26
SWIDTH 600 0
DWIDTH 8 0
BBX 8 14 0 -4
BITMAP
00
38
38
38
38
38
38
38
38
38
38
38
38
38
ENDCHAR
STARTCHAR H1b
ENCODING 27
SWIDTH 600 0
DWIDTH 8 0
BBX 8 14 0 -4
BITMAP
00
38
38
38
38
38
38
38
38
38
38
38
38
38
ENDCHAR
STARTCHAR H1c
ENCODING 28
SWIDTH 600 0
DWIDTH 8 0
BBX 8 14 0 -4
BITMAP
00
38
38
38
38
38
38
38
38
38
38
38
38
38
ENDCHAR
STARTCHAR H1d
ENCODING 29
SWIDTH 600 0
DWIDTH 8 0
BBX 8 14 0 -4
BITMAP
00
38
38
38
38
38
38
38
38
38
38
38
38
38
ENDCHAR
STARTCHAR H1e
ENCODING 30
SWIDTH 600 0
DWIDTH 8 0
BBX 8 14 0 -4
BITMAP
00
00
00
00
00
00
00
00
00
00
00
00
00
00
ENDCHAR
STARTCHAR H1f
ENCODING 31
SWIDTH 600 0
DWIDTH 8 0
BBX 8 14 0 -4
BITMAP
00
7e
fc
7e
fc
7e
fc
7e
fc
7e
fc
7e
fc
7e
ENDCHAR
STARTCHAR H20
ENCODING 32
SWIDTH 600 0
DWIDTH 8 0
BBX 8 14 0 -4
BITMAP
00
00
00
00
00
00
00
00
00
00
00
00
00
00
ENDCHAR
STARTCHAR H21
ENCODING 33
SWIDTH 600 0
DWIDTH 8 0
BBX 8 14 0 -4
BITMAP
00
18
18
18
18
18
18
18
00
18
18
00
00
00
ENDCHAR
STARTCHAR H22
ENCODING 34
SWIDTH 600 0
DWIDTH 8 0
BBX 8 14 0 -4
BITMAP
00
6c
6c
6c
6c
00
00
00
00
00
00
00
00
00
ENDCHAR
STARTCHAR H23
ENCODING 35
SWIDTH 600 0
DWIDTH 8 0
BBX 8 14 0 -4
BITMAP
00
1b
1b
1b
7f
36
36
ff
6c
6c
6c
00
00
00
ENDCHAR
STARTCHAR H24
ENCODING 36
SWIDTH 600 0
DWIDTH 8 0
BBX 8 14 0 -4
BITMAP
00
18
3c
5a
5a
58
3c
1a
5a
5a
3c
18
00
00
ENDCHAR
STARTCHAR H25
ENCODING 37
SWIDTH 600 0
DWIDTH 8 0
BBX 8 14 0 -4
BITMAP
00
76
96
9c
ec
18
18
37
39
69
6e
00
00
00
ENDCHAR
STARTCHAR H26
ENCODING 38
SWIDTH 600 0
DWIDTH 8 0
BBX 8 14 0 -4
BITMAP
00
38
6c
6c
38
30
7b
de
cc
dc
77
00
00
00
ENDCHAR
STARTCHAR H27
ENCODING 39
SWIDTH 600 0
DWIDTH 8 0
BBX 8 14 0 -4
BITMAP
00
0c
0c
18
30
00
00
00
00
00
00
00
00
00
ENDCHAR
STARTCHAR H28
ENCODING 40
SWIDTH 600 0
DWIDTH 8 0
BBX 8 14 0 -4
BITMAP
00
0c
18
18
30
30
30
30
30
18
18
0c
00
00
ENDCHAR
STARTCHAR H29
ENCODING 41
SWIDTH 600 0
DWIDTH 8 0
BBX 8 14 0 -4
BITMAP
00
30
18
18
0c
0c
0c
0c
0c
18
18
30
00
00
ENDCHAR
STARTCHAR H2a
ENCODING 42
SWIDTH 600 0
DWIDTH 8 0
BBX 8 14 0 -4
BITMAP
00
00
18
5a
7e
3c
7e
5a
18
00
00
00
00
00
ENDCHAR
STARTCHAR H2b
ENCODING 43
SWIDTH 600 0
DWIDTH 8 0
BBX 8 14 0 -4
BITMAP
00
00
00
00
18
18
7e
7e
18
18
00
00
00
00
ENDCHAR
STARTCHAR H2c
ENCODING 44
SWIDTH 600 0
DWIDTH 8 0
BBX 8 14 0 -4
BITMAP
00
00
00
00
00
00
00
00
00
18
18
08
30
00
ENDCHAR
STARTCHAR H2d
ENCODING 45
SWIDTH 600 0
DWIDTH 8 0
BBX 8 14 0 -4
BITMAP
00
00
00
00
00
00
7e
7e
00
00
00
00
00
00
ENDCHAR
STARTCHAR H2e
ENCODING 46
SWIDTH 600 0
DWIDTH 8 0
BBX 8 14 0 -4
BITMAP
00
00
00
00
00
00
00
00
00
18
18
00
00
00
ENDCHAR
STARTCHAR H2f
ENCODING 47
SWIDTH 600 0
DWIDTH 8 0
BBX 8 14 0 -4
BITMAP
00
06
06
0c
0c
18
18
30
30
60
60
00
00
00
ENDCHAR
STARTCHAR H30
ENCODING 48
SWIDTH 600 0
DWIDTH 8 0
BBX 8 14 0 -4
BITMAP
00
00
3c
66
66
6e
7e
76
66
66
3c
00
00
00
ENDCHAR
STARTCHAR H31
ENCODING 49
SWIDTH 600 0
DWIDTH 8 0
BBX 8 14 0 -4
BITMAP
00
00
18
38
78
18
18
18
18
18
7e
00
00
00
ENDCHAR
STARTCHAR H32
ENCODING 50
SWIDTH 600 0
DWIDTH 8 0
BBX 8 14 0 -4
BITMAP
00
00
3c
66
06
06
0c
18
30
62
7e
00
00
00
ENDCHAR
STARTCHAR H33
ENCODING 51
SWIDTH 600 0
DWIDTH 8 0
BBX 8 14 0 -4
BITMAP
00
00
3c
66
46
06
1c
06
46
66
3c
00
00
00
ENDCHAR
STARTCHAR H34
ENCODING 52
SWIDTH 600 0
DWIDTH 8 0
BBX 8 14 0 -4
BITMAP
00
00
06
0e
1e
36
66
c6
ff
06
06
00
00
00
ENDCHAR
STARTCHAR H35
ENCODING 53
SWIDTH 600 0
DWIDTH 8 0
BBX 8 14 0 -4
BITMAP
00
00
7e
60
60
7c
06
06
66
66
3c
00
00
00
ENDCHAR
STARTCHAR H36
ENCODING 54
SWIDTH 600 0
DWIDTH 8 0
BBX 8 14 0 -4
BITMAP
00
00
3c
66
60
60
7c
66
66
66
3c
00
00
00
ENDCHAR
STARTCHAR H37
ENCODING 55
SWIDTH 600 0
DWIDTH 8 0
BBX 8 14 0 -4
BITMAP
00
00
7e
46
06
04
0c
0c
18
18
18
00
00
00
ENDCHAR
STARTCHAR H38
ENCODING 56
SWIDTH 600 0
DWIDTH 8 0
BBX 8 14 0 -4
BITMAP
00
00
3c
66
66
66
3c
66
66
66
3c
00
00
00
ENDCHAR
STARTCHAR H39
ENCODING 57
SWIDTH 600 0
DWIDTH 8 0
BBX 8 14 0 -4
BITMAP
00
00
3c
66
66
66
3e
06
06
66
3c
00
00
00
ENDCHAR
STARTCHAR H3a
ENCODING 58
SWIDTH 600 0
DWIDTH 8 0
BBX 8 14 0 -4
BITMAP
00
00
00
00
18
18
00
00
00
18
18
00
00
00
ENDCHAR
STARTCHAR H3b
ENCODING 59
SWIDTH 600 0
DWIDTH 8 0
BBX 8 14 0 -4
BITMAP
00
00
00
00
18
18
00
00
00
18
18
08
30
00
ENDCHAR
STARTCHAR H3c
ENCODING 60
SWIDTH 600 0
DWIDTH 8 0
BBX 8 14 0 -4
BITMAP
00
02
06
0c
18
30
60
30
18
0c
06
02
00
00
ENDCHAR
STARTCHAR H3d
ENCODING 61
SWIDTH 600 0
DWIDTH 8 0
BBX 8 14 0 -4
BITMAP
00
00
00
00
7e
7e
00
00
7e
7e
00
00
00
00
ENDCHAR
STARTCHAR H3e
ENCODING 62
SWIDTH 600 0
DWIDTH 8 0
BBX 8 14 0 -4
BITMAP
00
40
60
30
18
0c
06
0c
18
30
60
40
00
00
ENDCHAR
STARTCHAR H3f
ENCODING 63
SWIDTH 600 0
DWIDTH 8 0
BBX 8 14 0 -4
BITMAP
00
3c
66
62
06
0c
18
18
00
18
18
00
00
00
ENDCHAR
STARTCHAR H40
ENCODING 64
SWIDTH 600 0
DWIDTH 8 0
BBX 8 14 0 -4
BITMAP
00
18
3c
66
6e
6a
6a
6e
60
36
1c
00
00
00
ENDCHAR
STARTCHAR H41
ENCODING 65
SWIDTH 600 0
DWIDTH 8 0
BBX 8 14 0 -4
BITMAP
00
00
10
38
38
6c
6c
c6
fe
c6
c6
00
00
00
ENDCHAR
STARTCHAR H42
ENCODING 66
SWIDTH 600 0
DWIDTH 8 0
BBX 8 14 0 -4
BITMAP
00
00
78
6c
6c
6c
7e
66
66
66
7c
00
00
00
ENDCHAR
STARTCHAR H43
ENCODING 67
SWIDTH 600 0
DWIDTH 8 0
BBX 8 14 0 -4
BITMAP
00
00
3c
66
62
60
60
60
62
66
3c
00
00
00
ENDCHAR
STARTCHAR H44
ENCODING 68
SWIDTH 600 0
DWIDTH 8 0
BBX 8 14 0 -4
BITMAP
00
00
78
6c
66
66
66
66
66
6c
78
00
00
00
ENDCHAR
STARTCHAR H45
ENCODING 69
SWIDTH 600 0
DWIDTH 8 0
BBX 8 14 0 -4
BITMAP
00
00
7e
60
60
60
7c
60
60
60
7e
00
00
00
ENDCHAR
STARTCHAR H46
ENCODING 70
SWIDTH 600 0
DWIDTH 8 0
BBX 8 14 0 -4
BITMAP
00
00
7e
60
60
60
7c
60
60
60
60
00
00
00
ENDCHAR
STARTCHAR H47
ENCODING 71
SWIDTH 600 0
DWIDTH 8 0
BBX 8 14 0 -4
BITMAP
00
00
3c
66
62
60
6e
66
66
66
3a
00
00
00
ENDCHAR
STARTCHAR H48
ENCODING 72
SWIDTH 600 0
DWIDTH 8 0
BBX 8 14 0 -4
BITMAP
00
00
66
66
66
66
7e
66
66
66
66
00
00
00
ENDCHAR
STARTCHAR H49
ENCODING 73
SWIDTH 600 0
DWIDTH 8 0
BBX 8 14 0 -4
BITMAP
00
00
7e
18
18
18
18
18
18
18
7e
00
00
00
ENDCHAR
STARTCHAR H4a
ENCODING 74
SWIDTH 600 0
DWIDTH 8 0
BBX 8 14 0 -4
BITMAP
00
00
3e
0c
0c
0c
0c
0c
6c
6c
38
00
00
00
ENDCHAR
STARTCHAR H4b
ENCODING 75
SWIDTH 600 0
DWIDTH 8 0
BBX 8 14 0 -4
BITMAP
00
00
62
66
6c
78
78
6c
6c
66
66
00
00
00
ENDCHAR
STARTCHAR H4c
ENCODING 76
SWIDTH 600 0
DWIDTH 8 0
BBX 8 14 0 -4
BITMAP
00
00
60
60
60
60
60
60
60
60
7e
00
00
00
ENDCHAR
STARTCHAR H4d
ENCODING 77
SWIDTH 600 0
DWIDTH 8 0
BBX 8 14 0 -4
BITMAP
00
00
c6
c6
ee
ee
fe
d6
d6
c6
c6
00
00
00
ENDCHAR
STARTCHAR H4e
ENCODING 78
SWIDTH 600 0
DWIDTH 8 0
BBX 8 14 0 -4
BITMAP
00
00
66
66
76
76
7e
6e
6e
66
66
00
00
00
ENDCHAR
STARTCHAR H4f
ENCODING 79
SWIDTH 600 0
DWIDTH 8 0
BBX 8 14 0 -4
BITMAP
00
00
3c
66
66
66
66
66
66
66
3c
00
00
00
ENDCHAR
STARTCHAR H50
ENCODING 80
SWIDTH 600 0
DWIDTH 8 0
BBX 8 14 0 -4
BITMAP
00
00
7c
66
66
66
7c
60
60
60
60
00
00
00
ENDCHAR
STARTCHAR H51
ENCODING 81
SWIDTH 600 0
DWIDTH 8 0
BBX 8 14 0 -4
BITMAP
00
00
3c
66
66
66
66
66
66
66
3c
18
0e
00
ENDCHAR
STARTCHAR H52
ENCODING 82
SWIDTH 600 0
DWIDTH 8 0
BBX 8 14 0 -4
BITMAP
00
00
7c
66
66
66
7c
6c
66
66
66
00
00
00
ENDCHAR
STARTCHAR H53
ENCODING 83
SWIDTH 600 0
DWIDTH 8 0
BBX 8 14 0 -4
BITMAP
00
00
3c
66
60
30
0c
06
66
66
3c
00
00
00
ENDCHAR
STARTCHAR H54
ENCODING 84
SWIDTH 600 0
DWIDTH 8 0
BBX 8 14 0 -4
BITMAP
00
00
7e
18
18
18
18
18
18
18
18
00
00
00
ENDCHAR
STARTCHAR H55
ENCODING 85
SWIDTH 600 0
DWIDTH 8 0
BBX 8 14 0 -4
BITMAP
00
00
66
66
66
66
66
66
66
66
3c
00
00
00
ENDCHAR
STARTCHAR H56
ENCODING 86
SWIDTH 600 0
DWIDTH 8 0
BBX 8 14 0 -4
BITMAP
00
00
66
66
66
24
3c
3c
18
18
18
00
00
00
ENDCHAR
STARTCHAR H57
ENCODING 87
SWIDTH 600 0
DWIDTH 8 0
BBX 8 14 0 -4
BITMAP
00
00
c3
c3
db
5a
7e
7e
66
24
24
00
00
00
ENDCHAR
STARTCHAR H58
ENCODING 88
SWIDTH 600 0
DWIDTH 8 0
BBX 8 14 0 -4
BITMAP
00
00
66
66
66
3c
18
3c
66
66
66
00
00
00
ENDCHAR
STARTCHAR H59
ENCODING 89
SWIDTH 600 0
DWIDTH 8 0
BBX 8 14 0 -4
BITMAP
00
00
66
66
66
3c
18
18
18
18
18
00
00
00
ENDCHAR
STARTCHAR H5a
ENCODING 90
SWIDTH 600 0
DWIDTH 8 0
BBX 8 14 0 -4
BITMAP
00
00
7e
06
06
0c
18
30
60
60
7e
00
00
00
ENDCHAR
STARTCHAR H5b
ENCODING 91
SWIDTH 600 0
DWIDTH 8 0
BBX 8 14 0 -4
BITMAP
00
3e
30
30
30
30
30
30
30
30
30
3e
00
00
ENDCHAR
STARTCHAR H5c
ENCODING 92
SWIDTH 600 0
DWIDTH 8 0
BBX 8 14 0 -4
BITMAP
00
60
60
30
30
18
18
0c
0c
06
06
00
00
00
ENDCHAR
STARTCHAR H5d
ENCODING 93
SWIDTH 600 0
DWIDTH 8 0
BBX 8 14 0 -4
BITMAP
00
7c
0c
0c
0c
0c
0c
0c
0c
0c
0c
7c
00
00
ENDCHAR
STARTCHAR H5e
ENCODING 94
SWIDTH 600 0
DWIDTH 8 0
BBX 8 14 0 -4
BITMAP
00
00
18
3c
66
42
00
00
00
00
00
00
00
00
ENDCHAR
STARTCHAR H5f
ENCODING 95
SWIDTH 600 0
DWIDTH 8 0
BBX 8 14 0 -4
BITMAP
00
00
00
00
00
00
00
00
00
00
00
fe
fe
00
ENDCHAR
STARTCHAR H60
ENCODING 96
SWIDTH 600 0
DWIDTH 8 0
BBX 8 14 0 -4
BITMAP
00
30
30
18
0c
00
00
00
00
00
00
00
00
00
ENDCHAR
STARTCHAR H61
ENCODING 97
SWIDTH 600 0
DWIDTH 8 0
BBX 8 14 0 -4
BITMAP
00
00
00
00
3c
66
06
3e
66
66
3e
00
00
00
ENDCHAR
STARTCHAR H62
ENCODING 98
SWIDTH 600 0
DWIDTH 8 0
BBX 8 14 0 -4
BITMAP
00
00
60
60
6c
76
66
66
66
76
6c
00
00
00
ENDCHAR
STARTCHAR H63
ENCODING 99
SWIDTH 600 0
DWIDTH 8 0
BBX 8 14 0 -4
BITMAP
00
00
00
00
3c
66
60
60
60
66
3c
00
00
00
ENDCHAR
STARTCHAR H64
ENCODING 100
SWIDTH 600 0
DWIDTH 8 0
BBX 8 14 0 -4
BITMAP
00
00
06
06
36
6e
66
66
66
6e
36
00
00
00
ENDCHAR
STARTCHAR H65
ENCODING 101
SWIDTH 600 0
DWIDTH 8 0
BBX 8 14 0 -4
BITMAP
00
00
00
00
3c
66
66
7e
60
66
3c
00
00
00
ENDCHAR
STARTCHAR H66
ENCODING 102
SWIDTH 600 0
DWIDTH 8 0
BBX 8 14 0 -4
BITMAP
00
00
0e
18
18
7e
18
18
18
18
18
00
00
00
ENDCHAR
STARTCHAR H67
ENCODING 103
SWIDTH 600 0
DWIDTH 8 0
BBX 8 14 0 -4
BITMAP
00
00
00
00
36
6e
66
66
66
6e
36
06
66
3c
ENDCHAR
STARTCHAR H68
ENCODING 104
SWIDTH 600 0
DWIDTH 8 0
BBX 8 14 0 -4
BITMAP
00
00
60
60
6c
76
66
66
66
66
66
00
00
00
ENDCHAR
STARTCHAR H69
ENCODING 105
SWIDTH 600 0
DWIDTH 8 0
BBX 8 14 0 -4
BITMAP
00
00
18
00
78
18
18
18
18
18
18
00
00
00
ENDCHAR
STARTCHAR H6a
ENCODING 106
SWIDTH 600 0
DWIDTH 8 0
BBX 8 14 0 -4
BITMAP
00
00
0c
00
3c
0c
0c
0c
0c
0c
0c
0c
6c
38
ENDCHAR
STARTCHAR H6b
ENCODING 107
SWIDTH 600 0
DWIDTH 8 0
BBX 8 14 0 -4
BITMAP
00
00
60
60
66
6c
78
78
6c
66
66
00
00
00
ENDCHAR
STARTCHAR H6c
ENCODING 108
SWIDTH 600 0
DWIDTH 8 0
BBX 8 14 0 -4
BITMAP
00
00
3c
0c
0c
0c
0c
0c
0c
0c
0c
00
00
00
ENDCHAR
STARTCHAR H6d
ENCODING 109
SWIDTH 600 0
DWIDTH 8 0
BBX 8 14 0 -4
BITMAP
00
00
00
00
ec
fe
d6
d6
d6
d6
d6
00
00
00
ENDCHAR
STARTCHAR H6e
ENCODING 110
SWIDTH 600 0
DWIDTH 8 0
BBX 8 14 0 -4
BITMAP
00
00
00
00
5c
76
66
66
66
66
66
00
00
00
ENDCHAR
STARTCHAR H6f
ENCODING 111
SWIDTH 600 0
DWIDTH 8 0
BBX 8 14 0 -4
BITMAP
00
00
00
00
3c
66
66
66
66
66
3c
00
00
00
ENDCHAR
STARTCHAR H70
ENCODING 112
SWIDTH 600 0
DWIDTH 8 0
BBX 8 14 0 -4
BITMAP
00
00
00
00
6c
76
66
66
66
76
6c
60
60
60
ENDCHAR
STARTCHAR H71
ENCODING 113
SWIDTH 600 0
DWIDTH 8 0
BBX 8 14 0 -4
BITMAP
00
00
00
00
36
6e
66
66
66
6e
36
06
06
06
ENDCHAR
STARTCHAR H72
ENCODING 114
SWIDTH 600 0
DWIDTH 8 0
BBX 8 14 0 -4
BITMAP
00
00
00
00
6c
76
60
60
60
60
60
00
00
00
ENDCHAR
STARTCHAR H73
ENCODING 115
SWIDTH 600 0
DWIDTH 8 0
BBX 8 14 0 -4
BITMAP
00
00
00
00
3c
66
60
3c
06
66
3c
00
00
00
ENDCHAR
STARTCHAR H74
ENCODING 116
SWIDTH 600 0
DWIDTH 8 0
BBX 8 14 0 -4
BITMAP
00
00
18
18
7e
18
18
18
18
1a
0c
00
00
00
ENDCHAR
STARTCHAR H75
ENCODING 117
SWIDTH 600 0
DWIDTH 8 0
BBX 8 14 0 -4
BITMAP
00
00
00
00
66
66
66
66
66
6e
36
00
00
00
ENDCHAR
STARTCHAR H76
ENCODING 118
SWIDTH 600 0
DWIDTH 8 0
BBX 8 14 0 -4
BITMAP
00
00
00
00
66
66
66
3c
3c
18
18
00
00
00
ENDCHAR
STARTCHAR H77
ENCODING 119
SWIDTH 600 0
DWIDTH 8 0
BBX 8 14 0 -4
BITMAP
00
00
00
00
c6
c6
d6
d6
d6
fe
6c
00
00
00
ENDCHAR
STARTCHAR H78
ENCODING 120
SWIDTH 600 0
DWIDTH 8 0
BBX 8 14 0 -4
BITMAP
00
00
00
00
66
66
3c
18
3c
66
66
00
00
00
ENDCHAR
STARTCHAR H79
ENCODING 121
SWIDTH 600 0
DWIDTH 8 0
BBX 8 14 0 -4
BITMAP
00
00
00
00
66
66
36
36
1c
1c
0c
08
78
30
ENDCHAR
STARTCHAR H7a
ENCODING 122
SWIDTH 600 0
DWIDTH 8 0
BBX 8 14 0 -4
BITMAP
00
00
00
00
7e
06
0c
18
30
60
7e
00
00
00
ENDCHAR
STARTCHAR H7b
ENCODING 123
SWIDTH 600 0
DWIDTH 8 0
BBX 8 14 0 -4
BITMAP
0e
18
18
18
18
18
70
18
18
18
18
18
0e
00
ENDCHAR
STARTCHAR H7c
ENCODING 124
SWIDTH 600 0
DWIDTH 8 0
BBX 8 14 0 -4
BITMAP
18
18
18
18
18
18
00
18
18
18
18
18
18
00
ENDCHAR
STARTCHAR H7d
ENCODING 125
SWIDTH 600 0
DWIDTH 8 0
BBX 8 14 0 -4
BITMAP
70
18
18
18
18
18
0e
18
18
18
18
18
70
00
ENDCHAR
STARTCHAR H7e
ENCODING 126
SWIDTH 600 0
DWIDTH 8 0
BBX 8 14 0 -4
BITMAP
00
00
32
7e
4c
00
00
00
00
00
00
00
00
00
ENDCHAR
STARTCHAR H7f
ENCODING 127
SWIDTH 600 0
DWIDTH 8 0
BBX 8 14 0 -4
BITMAP
00
f0
d8
d8
f0
d8
d8
00
0e
1b
1b
1b
1b
0e
ENDCHAR
STARTCHAR H80
ENCODING 128
SWIDTH 600 0
DWIDTH 8 0
BBX 8 14 0 -4
BITMAP
00
00
00
00
00
00
00
00
00
00
00
00
00
00
ENDCHAR
STARTCHAR H81
ENCODING 129
SWIDTH 600 0
DWIDTH 8 0
BBX 8 14 0 -4
BITMAP
00
00
00
00
00
00
00
00
00
00
00
00
00
00
ENDCHAR
STARTCHAR H82
ENCODING 130
SWIDTH 600 0
DWIDTH 8 0
BBX 8 14 0 -4
BITMAP
00
00
00
00
00
00
00
00
00
00
00
00
00
00
ENDCHAR
STARTCHAR H83
ENCODING 131
SWIDTH 600 0
DWIDTH 8 0
BBX 8 14 0 -4
BITMAP
00
00
00
00
00
00
00
00
00
00
00
00
00
00
ENDCHAR
STARTCHAR H84
ENCODING 132
SWIDTH 600 0
DWIDTH 8 0
BBX 8 14 0 -4
BITMAP
00
00
00
00
00
00
00
00
00
00
00
00
00
00
ENDCHAR
STARTCHAR H85
ENCODING 133
SWIDTH 600 0
DWIDTH 8 0
BBX 8 14 0 -4
BITMAP
00
00
00
00
00
00
00
00
00
00
00
00
00
00
ENDCHAR
ENDFONT
